# xmcd
#
# Track frame offsets: 
#        150
#        21360
#        42596
#        67016
#        91681
#        115028
#        143616
#
# Disc length: 2251 seconds
#
# Revision: 2
# Processed by: cddbd v1.5.2PL0 Copyright (c) Steve Scherf et al.
# Submitted via: ExactAudioCopy v0.99pb4
#
DISCID=5808c907
DTITLE=Leæther Strip - Suicide Bombers
DYEAR=2005
DGENRE=Electronic
TTITLE0=Suicide Bombers
TTITLE1=Suicide Bombers (12 Inch Version)
TTITLE2=The Shame of the Nation (Part I and II)
TTITLE3=This is Where I Wanna Be
TTITLE4=Death is Walking Next to Me
TTITLE5=Til Far
TTITLE6=Reborn
EXTD=
EXTT0=
EXTT1=
EXTT2=
EXTT3=
EXTT4=
EXTT5=
EXTT6=
PLAYORDER=
